# xmcd CD database file
#
# Track frame offsets:
#	150
#	19568
#	41038
#	60456
#
# Disc length: 1091 seconds
#
# Revision: 4
# Processed by: cddbd v1.5.2PL0 Copyright (c) Steve Scherf et al.
# Submitted via: CDex 1.70beta3
#
DISCID=28044104
DTITLE=the笘・ambourines - afresh wish
DYEAR=2003
DGENRE=JPop
TTITLE0=afresh wish
TTITLE1=dive to the sky
TTITLE2=afresh wish (instrumental)
TTITLE3=dive to the sky (instrumental)
EXTD=YEAR: 2003
EXTT0=
EXTT1=
EXTT2=
EXTT3=
PLAYORDER=
